<svg width="31" height="31" viewBox="0 0 31 31" fill="none" xmlns="http://www.w3.org/2000/svg">
<path fill-rule="evenodd" clip-rule="evenodd" d="M7.75016 3.55176H6.4585C3.78345 3.55176 1.61475 5.72047 1.61475 8.39551V23.8955C1.61475 26.5705 3.78345 28.7393 6.4585 28.7393H16.6317C16.1847 27.8635 16.1176 26.834 16.4625 25.8976C17.0682 24.2443 18.2424 22.8609 19.7472 21.9877C18.8533 21.059 18.3031 19.7958 18.3031 18.4059C18.3031 15.5539 20.6177 13.2393 23.4697 13.2393C24.7395 13.2393 25.902 13.6978 26.8022 14.4586V8.39551C26.8022 5.72047 24.6335 3.55176 21.9585 3.55176H20.6668V6.45801C20.6668 6.99276 20.2328 7.42676 19.6981 7.42676C19.1633 7.42676 18.7293 6.99276 18.7293 6.45801V3.55176H9.68766V6.45801C9.68766 6.99276 9.25366 7.42676 8.71891 7.42676C8.18416 7.42676 7.75016 6.99276 7.75016 6.45801V3.55176ZM7.75016 19.0518H14.2085C14.7432 19.0518 15.1772 18.6178 15.1772 18.083C15.1772 17.5483 14.7432 17.1143 14.2085 17.1143H7.75016C7.21541 17.1143 6.78141 17.5483 6.78141 18.083C6.78141 18.6178 7.21541 19.0518 7.75016 19.0518ZM7.75016 13.8851H11.7543C12.2891 13.8851 12.7231 13.4511 12.7231 12.9163C12.7231 12.3816 12.2891 11.9476 11.7543 11.9476H7.75016C7.21541 11.9476 6.78141 12.3816 6.78141 12.9163C6.78141 13.4511 7.21541 13.8851 7.75016 13.8851Z" fill="#9723FD"/>
<path d="M23.4697 22.2812C25.6098 22.2812 27.3447 20.5464 27.3447 18.4062C27.3447 16.2661 25.6098 14.5312 23.4697 14.5312C21.3296 14.5312 19.5947 16.2661 19.5947 18.4062C19.5947 20.5464 21.3296 22.2812 23.4697 22.2812Z" fill="#9723FD"/>
<path fill-rule="evenodd" clip-rule="evenodd" d="M19.7974 29.3854L27.1509 29.3686C27.8755 29.3686 28.5627 29.0095 28.9825 28.4076C29.4023 27.8057 29.5004 27.0372 29.2473 26.3487C28.4038 23.9837 26.1344 22.2812 23.4696 22.2812C20.8088 22.2812 18.5406 23.9785 17.6752 26.3435C17.4195 27.0372 17.5189 27.8122 17.9426 28.418C18.365 29.025 19.0586 29.3854 19.7974 29.3854Z" fill="#9723FD"/>
<path fill-rule="evenodd" clip-rule="evenodd" d="M7.75 3.55176H9.6875V2.58301C9.6875 2.04826 9.2535 1.61426 8.71875 1.61426C8.184 1.61426 7.75 2.04826 7.75 2.58301V3.55176Z" fill="#9723FD"/>
<path fill-rule="evenodd" clip-rule="evenodd" d="M18.7295 3.55176H20.667V2.58301C20.667 2.04826 20.233 1.61426 19.6982 1.61426C19.1635 1.61426 18.7295 2.04826 18.7295 2.58301V3.55176Z" fill="#9723FD"/>
</svg>
