<svg width="31" height="31" viewBox="0 0 31 31" fill="none" xmlns="http://www.w3.org/2000/svg">
<path fill-rule="evenodd" clip-rule="evenodd" d="M7.74967 3.55225H6.45801C3.78297 3.55225 1.61426 5.72095 1.61426 8.396V23.896C1.61426 26.571 3.78297 28.7397 6.45801 28.7397H16.6312C16.1843 27.864 16.1171 26.8345 16.462 25.8981C17.0678 24.2447 18.2419 22.8614 19.7467 21.9882C18.8528 21.0595 18.3026 19.7962 18.3026 18.4064C18.3026 15.5544 20.6173 13.2397 23.4693 13.2397C24.739 13.2397 25.9015 13.6983 26.8018 14.4591V8.396C26.8018 5.72095 24.633 3.55225 21.958 3.55225H20.6663V6.4585C20.6663 6.99325 20.2323 7.42725 19.6976 7.42725C19.1628 7.42725 18.7288 6.99325 18.7288 6.4585V3.55225H9.68717V6.4585C9.68717 6.99325 9.25317 7.42725 8.71842 7.42725C8.18367 7.42725 7.74967 6.99325 7.74967 6.4585V3.55225ZM7.74967 19.0522H14.208C14.7428 19.0522 15.1768 18.6182 15.1768 18.0835C15.1768 17.5487 14.7428 17.1147 14.208 17.1147H7.74967C7.21492 17.1147 6.78092 17.5487 6.78092 18.0835C6.78092 18.6182 7.21492 19.0522 7.74967 19.0522ZM7.74967 13.8856H11.7538C12.2886 13.8856 12.7226 13.4516 12.7226 12.9168C12.7226 12.3821 12.2886 11.9481 11.7538 11.9481H7.74967C7.21492 11.9481 6.78092 12.3821 6.78092 12.9168C6.78092 13.4516 7.21492 13.8856 7.74967 13.8856Z" fill="#FF900D"/>
<path d="M23.4697 22.2812C25.6098 22.2812 27.3447 20.5464 27.3447 18.4062C27.3447 16.2661 25.6098 14.5312 23.4697 14.5312C21.3296 14.5312 19.5947 16.2661 19.5947 18.4062C19.5947 20.5464 21.3296 22.2812 23.4697 22.2812Z" fill="#FF900D"/>
<path fill-rule="evenodd" clip-rule="evenodd" d="M19.797 29.3854L27.1504 29.3686C27.875 29.3686 28.5622 29.0095 28.982 28.4076C29.4018 27.8057 29.5 27.0372 29.2468 26.3487C28.4033 23.9837 26.1339 22.2812 23.4692 22.2812C20.8083 22.2812 18.5402 23.9785 17.6747 26.3435C17.419 27.0372 17.5185 27.8122 17.9421 28.418C18.3645 29.025 19.0581 29.3854 19.797 29.3854Z" fill="#FF900D"/>
<path fill-rule="evenodd" clip-rule="evenodd" d="M7.75 3.55225H9.6875V2.5835C9.6875 2.04875 9.2535 1.61475 8.71875 1.61475C8.184 1.61475 7.75 2.04875 7.75 2.5835V3.55225Z" fill="#FF900D"/>
<path fill-rule="evenodd" clip-rule="evenodd" d="M18.7285 3.55225H20.666V2.5835C20.666 2.04875 20.232 1.61475 19.6973 1.61475C19.1625 1.61475 18.7285 2.04875 18.7285 2.5835V3.55225Z" fill="#FF900D"/>
</svg>
