<svg width="137" height="50" viewBox="0 0 137 50" fill="none" xmlns="http://www.w3.org/2000/svg">
<rect x="0.5" y="0.5" width="136" height="49" rx="24.5" fill="#EEEEEE" stroke="#DADCE6"/>
<rect width="19" height="19" transform="translate(33 16)" fill="#EEEEEE"/>
<path d="M41.0163 33.5156C40.8588 33.5156 40.7078 33.4531 40.5964 33.3417C40.4851 33.2304 40.4225 33.0793 40.4225 32.9219V27.213L34.9185 21.1597C34.7018 20.9209 34.5591 20.6244 34.5077 20.3061C34.4562 19.9878 34.4983 19.6615 34.6287 19.3666C34.7592 19.0718 34.9724 18.8211 35.2425 18.6451C35.5127 18.4691 35.8281 18.3753 36.1505 18.375H48.8508C49.1732 18.3753 49.4886 18.4691 49.7587 18.6451C50.0289 18.8211 50.2421 19.0718 50.3725 19.3666C50.503 19.6615 50.5451 19.9878 50.4936 20.3061C50.4422 20.6244 50.2995 20.9209 50.0828 21.1597L44.5788 27.213V30.5469C44.5787 30.6358 44.5587 30.7236 44.5201 30.8038C44.4816 30.8839 44.4255 30.9544 44.3561 31.01L41.3874 33.385C41.2821 33.4694 41.1512 33.5155 41.0163 33.5156ZM36.1505 19.5625C36.0581 19.5627 35.9677 19.5897 35.8904 19.6402C35.813 19.6908 35.752 19.7626 35.7146 19.8471C35.6772 19.9316 35.6651 20.0251 35.6798 20.1163C35.6944 20.2076 35.7352 20.2926 35.7972 20.3611L41.4556 26.5955C41.5526 26.7021 41.6075 26.8403 41.61 26.9844V31.6869L43.3913 30.25V26.9844C43.3909 26.8362 43.446 26.6932 43.5456 26.5836L49.2041 20.3492C49.2624 20.2804 49.3 20.1965 49.3126 20.1072C49.3252 20.0179 49.3123 19.9268 49.2754 19.8445C49.2384 19.7623 49.1789 19.6921 49.1038 19.6422C49.0287 19.5923 48.941 19.5647 48.8508 19.5625H36.1505Z" fill="#373A40"/>
<path d="M67.2929 20.228V21.81H63.2189V24.316H66.3409V25.87H63.2189V30H61.2589V20.228H67.2929ZM69.8167 21.32C69.4714 21.32 69.1821 21.2127 68.9487 20.998C68.7247 20.774 68.6127 20.4987 68.6127 20.172C68.6127 19.8453 68.7247 19.5747 68.9487 19.36C69.1821 19.136 69.4714 19.024 69.8167 19.024C70.1621 19.024 70.4467 19.136 70.6707 19.36C70.9041 19.5747 71.0207 19.8453 71.0207 20.172C71.0207 20.4987 70.9041 20.774 70.6707 20.998C70.4467 21.2127 70.1621 21.32 69.8167 21.32ZM70.7827 22.244V30H68.8227V22.244H70.7827ZM74.8192 19.64V30H72.8592V19.64H74.8192ZM79.1777 23.854V27.606C79.1777 27.8673 79.2384 28.0587 79.3597 28.18C79.4904 28.292 79.705 28.348 80.0037 28.348H80.9137V30H79.6817C78.0297 30 77.2037 29.1973 77.2037 27.592V23.854H76.2797V22.244H77.2037V20.326H79.1777V22.244H80.9137V23.854H79.1777ZM89.6734 25.954C89.6734 26.234 89.6548 26.486 89.6174 26.71H83.9474C83.9941 27.27 84.1901 27.7087 84.5354 28.026C84.8808 28.3433 85.3054 28.502 85.8094 28.502C86.5374 28.502 87.0554 28.1893 87.3634 27.564H89.4774C89.2534 28.3107 88.8241 28.9267 88.1894 29.412C87.5548 29.888 86.7754 30.126 85.8514 30.126C85.1048 30.126 84.4328 29.9627 83.8354 29.636C83.2474 29.3 82.7854 28.8287 82.4494 28.222C82.1228 27.6153 81.9594 26.9153 81.9594 26.122C81.9594 25.3193 82.1228 24.6147 82.4494 24.008C82.7761 23.4013 83.2334 22.9347 83.8214 22.608C84.4094 22.2813 85.0861 22.118 85.8514 22.118C86.5888 22.118 87.2468 22.2767 87.8254 22.594C88.4134 22.9113 88.8661 23.364 89.1834 23.952C89.5101 24.5307 89.6734 25.198 89.6734 25.954ZM87.6434 25.394C87.6341 24.89 87.4521 24.4887 87.0974 24.19C86.7428 23.882 86.3088 23.728 85.7954 23.728C85.3101 23.728 84.8994 23.8773 84.5634 24.176C84.2368 24.4653 84.0361 24.8713 83.9614 25.394H87.6434ZM93.204 23.448C93.456 23.0373 93.7827 22.7153 94.184 22.482C94.5947 22.2487 95.0614 22.132 95.584 22.132V24.19H95.066C94.45 24.19 93.9834 24.3347 93.666 24.624C93.358 24.9133 93.204 25.4173 93.204 26.136V30H91.244V22.244H93.204V23.448ZM100.012 30.126C99.3775 30.126 98.8082 30.014 98.3042 29.79C97.8002 29.5567 97.3989 29.244 97.1002 28.852C96.8109 28.46 96.6522 28.026 96.6242 27.55H98.5982C98.6355 27.8487 98.7802 28.096 99.0322 28.292C99.2935 28.488 99.6155 28.586 99.9982 28.586C100.372 28.586 100.661 28.5113 100.866 28.362C101.081 28.2127 101.188 28.0213 101.188 27.788C101.188 27.536 101.058 27.3493 100.796 27.228C100.544 27.0973 100.138 26.9573 99.5782 26.808C98.9995 26.668 98.5235 26.5233 98.1502 26.374C97.7862 26.2247 97.4689 25.996 97.1982 25.688C96.9369 25.38 96.8062 24.9647 96.8062 24.442C96.8062 24.0127 96.9275 23.6207 97.1702 23.266C97.4222 22.9113 97.7769 22.6313 98.2342 22.426C98.7009 22.2207 99.2469 22.118 99.8722 22.118C100.796 22.118 101.534 22.3513 102.084 22.818C102.635 23.2753 102.938 23.896 102.994 24.68H101.118C101.09 24.372 100.96 24.1293 100.726 23.952C100.502 23.7653 100.199 23.672 99.8162 23.672C99.4615 23.672 99.1862 23.7373 98.9902 23.868C98.8035 23.9987 98.7102 24.1807 98.7102 24.414C98.7102 24.6753 98.8409 24.876 99.1022 25.016C99.3635 25.1467 99.7695 25.282 100.32 25.422C100.88 25.562 101.342 25.7067 101.706 25.856C102.07 26.0053 102.383 26.2387 102.644 26.556C102.915 26.864 103.055 27.2747 103.064 27.788C103.064 28.236 102.938 28.6373 102.686 28.992C102.444 29.3467 102.089 29.6267 101.622 29.832C101.165 30.028 100.628 30.126 100.012 30.126Z" fill="#373A40"/>
</svg>
