<svg width="26" height="26" viewBox="0 0 26 26" fill="none" xmlns="http://www.w3.org/2000/svg">
<path d="M1.19189 22.0996C1.19189 23.6163 2.38356 24.8079 3.90023 24.8079H22.1002C23.6169 24.8079 24.8086 23.6163 24.8086 22.0996V7.47461H1.19189V22.0996ZM7.90856 16.3579L10.5086 18.9579L18.0919 11.3746L18.8502 12.1329L10.8336 20.0413C10.7252 20.1496 10.6169 20.1496 10.4002 20.1496C10.1836 20.1496 10.0752 20.1496 9.96689 20.0413L7.04189 17.1163L7.90856 16.3579Z" fill="#0D8EE6"/>
<path d="M22.1002 1.19141H3.90023C2.38356 1.19141 1.19189 2.38307 1.19189 3.89974V6.39141H4.11689V4.87474C4.11689 4.54974 4.4419 4.33307 4.65856 4.33307C4.87523 4.33307 5.20023 4.54974 5.20023 4.87474V6.49974H7.47523V4.87474C7.47523 4.54974 7.6919 4.33307 8.01689 4.33307C8.3419 4.33307 8.55856 4.54974 8.55856 4.87474V6.49974H10.8336V4.87474C10.8336 4.54974 11.0502 4.33307 11.3752 4.33307C11.7002 4.33307 11.9169 4.54974 11.9169 4.87474V6.49974H14.0836V4.87474C14.0836 4.54974 14.4086 4.33307 14.6252 4.33307C14.8419 4.33307 15.1669 4.54974 15.1669 4.87474V6.49974H17.4419V4.87474C17.4419 4.54974 17.6586 4.33307 17.9836 4.33307C18.3086 4.33307 18.5252 4.54974 18.5252 4.87474V6.49974H20.8002V4.87474C20.8002 4.54974 21.0169 4.33307 21.3419 4.33307C21.6669 4.33307 21.8836 4.54974 21.8836 4.87474V6.49974H24.8086V3.89974C24.8086 2.38307 23.6169 1.19141 22.1002 1.19141Z" fill="#0D8EE6"/>
</svg>
