<svg width="36" height="36" viewBox="0 0 36 36" fill="none" xmlns="http://www.w3.org/2000/svg">
<g clip-path="url(#clip0_171_228)">
<path d="M14.3738 0.00146484H6.19824V4.9869L14.3738 3.62432V0.00146484Z" fill="#20AA70"/>
<path d="M32.3727 33.8896V10.2866H19.0547V33.8896H16.9453V8.17721V5.33447L3.62728 7.5541V33.8896H0V35.9989H36V33.8896H32.3727ZM27.1647 13.3197H29.4052V15.429H27.1647V13.3197ZM27.1647 18.4622H29.4052V20.5715H27.1647V18.4622ZM27.1647 23.6046H29.4052V25.714H27.1647V23.6046ZM27.1647 28.7471H29.4052V30.8565H27.1647V28.7471ZM22.0222 13.3197H24.2627V15.429H22.0222V13.3197ZM22.0222 18.4622H24.2627V20.5715H22.0222V18.4622ZM22.0222 23.6046H24.2627V25.714H22.0222V23.6046ZM22.0222 28.7471H24.2627V30.8565H22.0222V28.7471ZM11.7373 8.17721H13.9778V10.2866H11.7373V8.17721ZM11.7373 13.3197H13.9778V15.429H11.7373V13.3197ZM11.7373 18.4622H13.9778V20.5715H11.7373V18.4622ZM11.7373 23.6046H13.9778V25.714H11.7373V23.6046ZM6.59482 13.3197H8.83533V15.429H6.59482V13.3197ZM6.59482 18.4622H8.83533V20.5715H6.59482V18.4622ZM6.59482 23.6046H8.83533V25.714H6.59482V23.6046ZM6.66035 28.7471H13.9122V33.8896H11.8029V30.8565H8.76973V33.8896H6.66035V28.7471Z" fill="#20AA70"/>
</g>
<defs>
<clipPath id="clip0_171_228">
<rect width="36" height="36" fill="white"/>
</clipPath>
</defs>
</svg>
