<svg width="34" height="34" viewBox="0 0 34 34" fill="none" xmlns="http://www.w3.org/2000/svg">
<path d="M16.9995 15.0926C19.4823 15.0926 21.495 13.1053 21.495 10.6537C21.495 8.2022 19.4823 6.21484 16.9995 6.21484C14.5166 6.21484 12.5039 8.2022 12.5039 10.6537C12.5039 13.1053 14.5166 15.0926 16.9995 15.0926Z" fill="#0D8EE6"/>
<path d="M10.1809 11.0972H10.6342V10.6911C10.637 9.51013 10.9702 8.35353 11.5961 7.3521C12.222 6.35067 13.1156 5.54437 14.1759 5.0244C13.862 4.30149 13.3582 3.67709 12.7179 3.21753C12.0776 2.75796 11.3249 2.48039 10.5395 2.4143C9.75417 2.3482 8.96559 2.49605 8.25752 2.84214C7.54945 3.18823 6.94834 3.71964 6.51803 4.37992C6.08773 5.0402 5.84429 5.80471 5.81358 6.59223C5.78287 7.37975 5.96603 8.16089 6.34361 8.85268C6.72119 9.54447 7.27909 10.1211 7.95805 10.5213C8.63702 10.9214 9.41169 11.1302 10.1998 11.1255L10.1809 11.0972ZM23.3842 10.6533V11.0594H23.8376C24.6152 11.0516 25.3763 10.8343 26.0408 10.4304C26.7054 10.0265 27.2487 9.4509 27.6137 8.76422C27.9787 8.07754 28.1518 7.30516 28.1148 6.52839C28.0779 5.75162 27.8322 4.99918 27.4036 4.35027C26.975 3.70137 26.3795 3.17999 25.6796 2.84104C24.9797 2.50208 24.2013 2.35807 23.4265 2.42416C22.6517 2.49026 21.909 2.76402 21.2766 3.21663C20.6442 3.66924 20.1456 4.28395 19.8331 4.99607C20.8938 5.514 21.7884 6.31826 22.4159 7.31796C23.0435 8.31767 23.3789 9.47296 23.3842 10.6533ZM21.0515 15.5361C22.9291 15.9084 24.7447 16.5443 26.4442 17.425C26.6837 17.5563 26.9006 17.7253 27.0865 17.9255H32.1109V14.6955C32.1118 14.5716 32.0789 14.4498 32.0156 14.3433C31.9524 14.2368 31.8612 14.1496 31.752 14.0911C29.3042 12.8107 26.5812 12.1462 23.8187 12.155H23.1954C22.868 13.4854 22.1153 14.6726 21.0515 15.5361ZM6.16702 19.7577C6.1653 19.2821 6.29375 18.815 6.53847 18.4072C6.7832 17.9993 7.13485 17.6662 7.55536 17.4438C9.25493 16.5632 11.0705 15.9273 12.9481 15.555C11.8895 14.6988 11.1372 13.5223 10.8042 12.2022H10.1809C7.41844 12.1934 4.69544 12.8579 2.24758 14.1383C2.13837 14.1968 2.04722 14.284 1.98397 14.3905C1.92072 14.4971 1.88777 14.6188 1.88869 14.7427V20.7777H6.16702V19.7577ZM20.2676 25.2072H25.8965V26.5294H20.2676V25.2072Z" fill="#0D8EE6"/>
<path d="M30.9858 20.0795H24.4975V19.1351C24.4975 18.8846 24.398 18.6444 24.2209 18.4672C24.0437 18.2901 23.8035 18.1906 23.553 18.1906C23.3026 18.1906 23.0623 18.2901 22.8852 18.4672C22.7081 18.6444 22.6086 18.8846 22.6086 19.1351V20.0795H20.7764V17.4067C19.534 17.1447 18.2683 17.0087 16.9986 17.0006C14.0178 16.9894 11.0798 17.7093 8.44193 19.0973C8.32445 19.1582 8.22611 19.2505 8.15778 19.3638C8.08944 19.4771 8.05377 19.6072 8.05471 19.7395V25.0378H14.7697V30.7895C14.7697 31.04 14.8692 31.2802 15.0463 31.4573C15.2234 31.6344 15.4637 31.7339 15.7141 31.7339H30.9858C31.2363 31.7339 31.4765 31.6344 31.6536 31.4573C31.8308 31.2802 31.9303 31.04 31.9303 30.7895V21.024C31.9303 20.7735 31.8308 20.5332 31.6536 20.3561C31.4765 20.179 31.2363 20.0795 30.9858 20.0795ZM30.0414 29.8639H16.6586V21.9684H22.6086V22.8278C22.6086 23.0783 22.7081 23.3185 22.8852 23.4957C23.0623 23.6728 23.3026 23.7723 23.553 23.7723C23.8035 23.7723 24.0437 23.6728 24.2209 23.4957C24.398 23.3185 24.4975 23.0783 24.4975 22.8278V21.9684H30.0414V29.8639Z" fill="#0D8EE6"/>
</svg>
