<svg width="47" height="47" viewBox="0 0 47 47" fill="none" xmlns="http://www.w3.org/2000/svg">
<path d="M7.51282 31.0221C8.81315 32.1854 10.2878 33.1077 11.8682 33.801L20.1793 28.582C21.8987 27.4971 24.2017 27.7537 25.6411 29.2009L28.4357 31.9954C32.6245 28.9071 35.2507 23.9662 35.2507 18.6043C35.2507 9.42562 27.7835 1.9585 18.6048 1.9585C9.42611 1.9585 1.95898 9.42562 1.95898 18.6043C1.95898 23.3415 3.98194 27.8672 7.51282 31.0221ZM19.349 20.0731H17.8607C15.5714 20.0731 13.709 18.2107 13.709 15.9214C13.709 13.8632 15.1934 12.1692 17.1361 11.8246V10.2814C17.1361 9.47066 17.7941 8.81266 18.6048 8.81266C19.4156 8.81266 20.0736 9.47066 20.0736 10.2814V11.7502H22.0319C22.8427 11.7502 23.5007 12.4082 23.5007 13.2189C23.5007 14.0297 22.8427 14.6877 22.0319 14.6877H17.8607C17.1909 14.6877 16.6465 15.2321 16.6465 15.9018C16.6465 16.5912 17.1909 17.1356 17.8607 17.1356H19.349C21.6383 17.1356 23.5007 18.998 23.5007 21.2872C23.5007 23.3455 22.0162 25.0394 20.0736 25.3841V26.9253C20.0736 27.736 19.4156 28.394 18.6048 28.394C17.7941 28.394 17.1361 27.736 17.1361 26.9253V25.4585H15.1777C14.367 25.4585 13.709 24.8005 13.709 23.9897C13.709 23.179 14.367 22.521 15.1777 22.521H19.349C20.0187 22.521 20.5632 21.9766 20.5632 21.3068C20.5632 20.6175 20.0187 20.0731 19.349 20.0731Z" fill="#20AA70"/>
<path d="M45.041 23.5H37.2076C36.4165 23.5 35.6997 23.9778 35.3981 24.7083C35.0946 25.4407 35.263 26.2828 35.8231 26.8429L38.3552 29.375L30.3535 37.3768L23.9047 30.928C23.2643 30.2837 22.2577 30.172 21.49 30.6479L0.927537 43.3771C0.00712074 43.947 -0.274879 45.1533 0.293037 46.0717C0.663162 46.671 1.30354 47 1.95958 47C2.31208 47 2.66654 46.906 2.9877 46.7063L22.2303 34.7937L28.967 41.5304C29.7327 42.2961 30.9703 42.2961 31.736 41.5304L41.1243 32.1441L43.6564 34.6762C44.0305 35.0503 44.5318 35.25 45.041 35.25C45.2936 35.25 45.5482 35.201 45.791 35.1012C46.5234 34.7976 46.9993 34.0828 46.9993 33.2917V25.4583C46.9993 24.3773 46.1239 23.5 45.041 23.5Z" fill="#20AA70"/>
</svg>
