<svg width="31" height="31" viewBox="0 0 31 31" fill="none" xmlns="http://www.w3.org/2000/svg">
<g clip-path="url(#clip0_171_656)">
<path fill-rule="evenodd" clip-rule="evenodd" d="M10.4486 13.1151C12.6198 13.1151 14.6364 13.7759 16.3091 14.907L12.8355 17.4307C11.8109 18.1751 11.5814 19.6092 12.3248 20.635C12.9028 21.4327 13.8994 21.7493 14.7963 21.5009V23.5912H0.739736C0.526368 23.5912 0.342669 23.5111 0.197659 23.3548C0.0525286 23.1984 -0.0136491 23.0092 0.00233524 22.7965C0.408423 17.382 4.93031 13.1151 10.4486 13.1151ZM14.9613 20.3623L15.765 19.7785V27.0749C15.765 28.1179 16.6184 28.9713 17.6614 28.9713H20.0902V22.6548C20.0902 22.1642 20.4916 21.7627 20.9823 21.7627H22.8746C23.3652 21.7627 23.7667 22.1642 23.7667 22.6548V28.9713H26.1954C27.2384 28.9713 28.0918 28.1179 28.0918 27.0749V19.7784L28.8955 20.3623C29.4886 20.7922 30.3179 20.6597 30.7476 20.0666C31.1774 19.4735 31.045 18.6443 30.4519 18.2145L22.7296 12.6039C22.2765 12.2603 21.6346 12.2362 21.1502 12.5872L13.4049 18.2145C12.8118 18.6443 12.6794 19.4735 13.1092 20.0666C13.539 20.6597 14.3682 20.7921 14.9613 20.3623ZM10.4487 2.02881C13.3739 2.02881 15.7453 4.40025 15.7453 7.32545C15.7453 10.2507 13.3739 12.6221 10.4487 12.6221C7.52347 12.6221 5.15203 10.2507 5.15203 7.32545C5.15203 4.40025 7.52347 2.02881 10.4487 2.02881Z" fill="#7152F3"/>
</g>
<defs>
<clipPath id="clip0_171_656">
<rect width="31" height="31" fill="white"/>
</clipPath>
</defs>
</svg>
