<svg width="39" height="39" viewBox="0 0 39 39" fill="none" xmlns="http://www.w3.org/2000/svg">
<g clip-path="url(#clip0_334_5030)">
<path d="M28.6405 13.7876C22.9702 13.7876 18.3574 18.4003 18.3574 24.0706C18.3574 29.741 22.9701 34.3537 28.6405 34.3537C34.3109 34.3537 38.9997 29.741 38.9997 24.0706C38.9997 18.4003 34.3109 13.7876 28.6405 13.7876ZM29.8131 29.577C29.8032 29.5807 29.7929 29.579 29.783 29.5824V30.926C29.783 31.5576 29.2719 32.0686 28.6404 32.0686C28.0089 32.0686 27.4978 31.5576 27.4978 30.926V29.5747C26.7453 29.3204 26.0243 28.8379 25.4079 28.1031C25.0017 27.62 25.0642 26.8991 25.5485 26.4941C26.0317 26.088 26.7547 26.1504 27.1575 26.6347C27.7622 27.3544 28.4462 27.6401 29.0309 27.4303C29.4806 27.2663 29.783 26.8345 29.783 26.3558C29.783 25.7254 29.2708 25.2132 28.6404 25.2132C26.7503 25.2132 25.2127 23.6756 25.2127 21.7856C25.2127 20.4053 26.0339 19.1656 27.3049 18.6279C27.3678 18.6013 27.4344 18.6028 27.4979 18.5801V17.2153C27.4979 16.5838 28.0089 16.0728 28.6405 16.0728C29.272 16.0728 29.783 16.5838 29.783 17.2153V18.5822C30.3747 18.782 30.9516 19.0997 31.4668 19.5987C31.9197 20.0372 31.9309 20.7602 31.4913 21.2144C31.0528 21.6673 30.3286 21.6774 29.8756 21.2389C29.3199 20.7 28.7051 20.5147 28.1963 20.7323C27.7723 20.912 27.4978 21.3248 27.4978 21.7856C27.4978 22.416 28.01 22.9282 28.6404 22.9282C30.5305 22.9282 32.0681 24.4658 32.0681 26.3559C32.0682 27.7918 31.1621 29.0861 29.8131 29.577Z" fill="#7152F3"/>
<path d="M1.14258 25.2129C0.511037 25.2129 0 25.7239 0 26.3555V37.8573C0 38.4888 0.511037 38.9998 1.14258 38.9998H4.57024V25.2129H1.14258Z" fill="#7152F3"/>
<path d="M27.0983 7.13155L19.1003 0.276161C18.674 -0.0920537 18.0403 -0.0920537 17.614 0.276161L9.61615 7.13155C9.25243 7.44173 9.12187 7.94606 9.28808 8.39464C9.45322 8.84321 9.88054 9.14112 10.3593 9.14112H13.7869C13.7869 19.019 13.7869 29.1216 13.7869 39.0001C16.7304 39.0001 18.7653 39.0001 21.7849 39.0001C22.4164 39.0001 22.9275 38.4891 22.9275 37.8575V35.2514C18.8643 33.1666 16.0721 28.9429 16.0721 24.0707C16.0721 19.1985 18.8644 14.9747 22.9275 12.8899V9.1412H26.3551C26.8338 9.1412 27.2612 8.84329 27.4264 8.39471C27.5926 7.94606 27.4621 7.44173 27.0983 7.13155Z" fill="#7152F3"/>
<path d="M8.07422 16.0728C7.44268 16.0728 6.93164 16.5838 6.93164 17.2153V25.2133V39.0001C8.60057 39.0001 9.88147 39.0001 11.5019 39.0001V16.0728H8.07422Z" fill="#7152F3"/>
</g>
<defs>
<clipPath id="clip0_334_5030">
<rect width="39" height="39" fill="white"/>
</clipPath>
</defs>
</svg>
