<svg width="30" height="30" viewBox="0 0 30 30" fill="none" xmlns="http://www.w3.org/2000/svg">
<path d="M26.25 3.75H24.375V2.8125C24.375 2.56386 24.2762 2.3254 24.1004 2.14959C23.9246 1.97377 23.6861 1.875 23.4375 1.875C23.1889 1.875 22.9504 1.97377 22.7746 2.14959C22.5988 2.3254 22.5 2.56386 22.5 2.8125V3.75H18.75V2.8125C18.75 2.56386 18.6512 2.3254 18.4754 2.14959C18.2996 1.97377 18.0611 1.875 17.8125 1.875C17.5639 1.875 17.3254 1.97377 17.1496 2.14959C16.9738 2.3254 16.875 2.56386 16.875 2.8125V3.75H13.125V2.8125C13.125 2.56386 13.0262 2.3254 12.8504 2.14959C12.6746 1.97377 12.4361 1.875 12.1875 1.875C11.9389 1.875 11.7004 1.97377 11.5246 2.14959C11.3488 2.3254 11.25 2.56386 11.25 2.8125V3.75H7.5V2.8125C7.5 2.56386 7.40123 2.3254 7.22541 2.14959C7.0496 1.97377 6.81114 1.875 6.5625 1.875C6.31386 1.875 6.0754 1.97377 5.89959 2.14959C5.72377 2.3254 5.625 2.56386 5.625 2.8125V3.75H3.75C3.25272 3.75 2.77581 3.94754 2.42417 4.29917C2.07254 4.65081 1.875 5.12772 1.875 5.625V9.375H28.125V5.625C28.125 5.12772 27.9275 4.65081 27.5758 4.29917C27.2242 3.94754 26.7473 3.75 26.25 3.75Z" fill="#FF900D"/>
<path d="M1.875 26.25C1.875 26.7473 2.07254 27.2242 2.42417 27.5758C2.77581 27.9275 3.25272 28.125 3.75 28.125H26.25C26.7473 28.125 27.2242 27.9275 27.5758 27.5758C27.9275 27.2242 28.125 26.7473 28.125 26.25V11.25H1.875V26.25ZM20.3531 17.1469L22.2281 19.0219C22.316 19.109 22.3857 19.2127 22.4333 19.327C22.4809 19.4412 22.5054 19.5637 22.5054 19.6875C22.5054 19.8113 22.4809 19.9338 22.4333 20.048C22.3857 20.1623 22.316 20.266 22.2281 20.3531C22.141 20.441 22.0373 20.5107 21.923 20.5583C21.8088 20.6059 21.6863 20.6304 21.5625 20.6304C21.4387 20.6304 21.3162 20.6059 21.202 20.5583C21.0877 20.5107 20.984 20.441 20.8969 20.3531L20.625 20.0531C20.5632 20.9948 20.2655 21.9058 19.7593 22.7022C19.253 23.4986 18.5546 24.1548 17.7282 24.6105C16.9018 25.0662 15.9741 25.3066 15.0304 25.3097C14.0867 25.3128 13.1575 25.0784 12.3281 24.6281C12.1093 24.5038 11.9489 24.2977 11.8821 24.055C11.8152 23.8124 11.8476 23.5532 11.9719 23.3344C12.0962 23.1156 12.3023 22.9551 12.545 22.8883C12.7876 22.8215 13.0468 22.8538 13.2656 22.9781C13.7959 23.2748 14.3924 23.4328 15 23.4375C15.9242 23.4436 16.818 23.1083 17.5101 22.4958C18.2022 21.8833 18.6437 21.0368 18.75 20.1187L18.525 20.3531C18.3485 20.5297 18.109 20.6288 17.8594 20.6288C17.6097 20.6288 17.3703 20.5297 17.1938 20.3531C17.0172 20.1766 16.918 19.9372 16.918 19.6875C16.918 19.4378 17.0172 19.1984 17.1938 19.0219L19.0688 17.1469C19.2426 16.9834 19.4723 16.8924 19.7109 16.8924C19.9496 16.8924 20.1793 16.9834 20.3531 17.1469ZM7.77187 19.0219C7.85903 18.934 7.96272 18.8643 8.07696 18.8167C8.1912 18.7691 8.31374 18.7446 8.4375 18.7446C8.56126 18.7446 8.6838 18.7691 8.79804 18.8167C8.91228 18.8643 9.01597 18.934 9.10313 19.0219L9.39375 19.3219C9.45555 18.3802 9.75327 17.4692 10.2595 16.6728C10.7657 15.8764 11.4642 15.2202 12.2905 14.7645C13.1169 14.3088 14.0447 14.0684 14.9883 14.0653C15.932 14.0622 16.8613 14.2966 17.6906 14.7469C17.9094 14.8712 18.0699 15.0773 18.1367 15.32C18.2035 15.5626 18.1712 15.8218 18.0469 16.0406C17.9226 16.2594 17.7164 16.4199 17.4738 16.4867C17.2312 16.5535 16.9719 16.5212 16.7531 16.3969C16.2152 16.1088 15.615 15.9563 15.0048 15.9527C14.3946 15.9491 13.7927 16.0945 13.2514 16.3762C12.7101 16.658 12.2457 17.0676 11.8986 17.5694C11.5514 18.0713 11.332 18.6504 11.2594 19.2563L11.4844 19.0219C11.5718 18.9345 11.6756 18.8651 11.7898 18.8178C11.904 18.7705 12.0264 18.7462 12.15 18.7462C12.2736 18.7462 12.396 18.7705 12.5102 18.8178C12.6244 18.8651 12.7282 18.9345 12.8156 19.0219C12.903 19.1093 12.9724 19.2131 13.0197 19.3273C13.067 19.4415 13.0913 19.5639 13.0913 19.6875C13.0913 19.8111 13.067 19.9335 13.0197 20.0477C12.9724 20.1619 12.903 20.2657 12.8156 20.3531L10.9406 22.2281C10.8535 22.316 10.7498 22.3857 10.6355 22.4333C10.5213 22.4809 10.3988 22.5054 10.275 22.5054C10.1512 22.5054 10.0287 22.4809 9.91446 22.4333C9.80022 22.3857 9.69653 22.316 9.60938 22.2281L7.73438 20.3531C7.64891 20.2635 7.58205 20.1579 7.53764 20.0423C7.49324 19.9267 7.47217 19.8035 7.47566 19.6797C7.47914 19.5559 7.50712 19.4341 7.55796 19.3211C7.6088 19.2082 7.68151 19.1065 7.77187 19.0219Z" fill="#FF900D"/>
</svg>
