<svg width="32" height="32" viewBox="0 0 32 32" fill="none" xmlns="http://www.w3.org/2000/svg">
<path d="M30 11H2V8C2 6.3457 3.3457 5 5 5H6V7H8V5H15V7H17V5H24V7H26V5H27C28.6543 5 30 6.3457 30 8V11ZM2 13H30V24C30 25.6543 28.6543 27 27 27H5C3.3457 27 2 25.6543 2 24V13ZM14.5859 19L12.293 21.293C11.9023 21.6836 11.9023 22.3164 12.293 22.707C12.4883 22.9023 12.7441 23 13 23C13.2559 23 13.5117 22.9023 13.707 22.707L16 20.4141L18.293 22.707C18.4883 22.9023 18.7441 23 19 23C19.2559 23 19.5117 22.9023 19.707 22.707C20.0977 22.3164 20.0977 21.6836 19.707 21.293L17.4141 19L19.707 16.707C20.0977 16.3164 20.0977 15.6836 19.707 15.293C19.3164 14.9023 18.6836 14.9023 18.293 15.293L16 17.5859L13.707 15.293C13.3164 14.9023 12.6836 14.9023 12.293 15.293C11.9023 15.6836 11.9023 16.3164 12.293 16.707L14.5859 19Z" fill="#09B69F"/>
</svg>
