<svg xmlns="http://www.w3.org/2000/svg" width="19" height="19" viewBox="0 0 19 19" fill="none">
  <path d="M9.10044 0.752441C6.33628 0.752441 4.07521 3.01513 4.07521 5.77928C4.07521 7.46945 4.92309 8.96615 6.21209 9.87675C3.21155 11.0796 1.08327 14.0143 1.08327 17.4378C1.05931 18.517 2.69056 18.517 2.6666 17.4378C2.6666 13.804 5.59652 10.8756 9.23032 10.8756C10.4988 10.8756 11.6762 11.2371 12.6784 11.8574C13.5793 12.4099 14.4081 11.0586 13.5072 10.5061C13.056 10.2269 12.567 10.0092 12.063 9.82105C13.3073 8.90578 14.121 7.43584 14.121 5.77928C14.121 3.01513 11.8646 0.752441 9.10044 0.752441ZM9.10044 2.33735C11.0089 2.33735 12.5377 3.87082 12.5377 5.77928C12.5377 7.68775 11.0089 9.21491 9.10044 9.21491C7.19198 9.21491 5.65855 7.68775 5.65855 5.77928C5.65855 3.87082 7.19198 2.33735 9.10044 2.33735ZM13.9571 15.808V17.3914C13.98 18.4238 15.5175 18.4238 15.5405 17.3914V15.808H17.1253C18.1819 15.808 18.1819 14.2232 17.1253 14.2232H15.5405V12.6399C15.5456 12.196 15.1849 11.8345 14.7411 11.8389C14.3032 11.8419 13.952 12.2021 13.9571 12.6399V14.2232H12.3359C11.2414 14.2738 11.3172 15.8585 12.3738 15.808H13.9571Z" fill="white"/>
</svg>