<svg xmlns="http://www.w3.org/2000/svg" width="19" height="19" viewBox="0 0 19 19" fill="none">
  <g clip-path="url(#clip0_218_4868)">
    <path fill-rule="evenodd" clip-rule="evenodd" d="M9.10384 16.0416H2.33509C2.29313 16.0416 2.25276 16.0242 2.22347 15.9949C2.19338 15.9648 2.17676 15.9252 2.17676 15.8832V14.7345C2.17676 14.0775 2.64622 13.498 3.3698 13.0055C4.6618 12.1236 6.75259 11.5679 9.10384 11.5679C9.43159 11.5679 9.69759 11.3019 9.69759 10.9741C9.69759 10.6472 9.43159 10.3804 9.10384 10.3804C6.47393 10.3804 4.14563 11.0382 2.70005 12.0239C1.59726 12.776 0.989258 13.7315 0.989258 14.7345V15.8832C0.989258 16.2395 1.13097 16.5823 1.38351 16.8348C1.63605 17.0866 1.97805 17.2291 2.33509 17.2291H9.10384C9.43159 17.2283 9.69759 16.9623 9.69759 16.6345C9.69759 16.3076 9.43159 16.0408 9.10384 16.0416Z" fill="white"/>
    <path fill-rule="evenodd" clip-rule="evenodd" d="M9.10417 0.989746C6.70067 0.989746 4.75 2.94041 4.75 5.34391C4.75 7.74741 6.70067 9.69808 9.10417 9.69808C11.5077 9.69808 13.4583 7.74741 13.4583 5.34391C13.4583 2.94041 11.5077 0.989746 9.10417 0.989746ZM9.10417 2.17725C10.8522 2.17725 12.2708 3.59591 12.2708 5.34391C12.2708 7.09191 10.8522 8.51058 9.10417 8.51058C7.35617 8.51058 5.9375 7.09191 5.9375 5.34391C5.9375 3.59591 7.35617 2.17725 9.10417 2.17725Z" fill="white"/>
    <path fill-rule="evenodd" clip-rule="evenodd" d="M13.8541 11.0342C12.2977 11.0342 11.0342 12.2977 11.0342 13.8541C11.0342 15.4105 12.2977 16.6748 13.8541 16.6748C15.4105 16.6748 16.6748 15.4105 16.6748 13.8541C16.6748 12.2977 15.4105 11.0342 13.8541 11.0342ZM13.8541 12.2217C14.755 12.2217 15.4873 12.9532 15.4873 13.8541C15.4873 14.755 14.755 15.4873 13.8541 15.4873C12.9532 15.4873 12.2209 14.755 12.2209 13.8541C12.2209 12.9532 12.9532 12.2217 13.8541 12.2217Z" fill="white"/>
    <path fill-rule="evenodd" clip-rule="evenodd" d="M14.4473 11.6275V10.292C14.4473 9.96424 14.1813 9.69824 13.8535 9.69824C13.5258 9.69824 13.2598 9.96424 13.2598 10.292V11.6283C13.2598 11.9553 13.5258 12.2221 13.8535 12.2221C14.1813 12.2213 14.4473 11.9553 14.4473 11.6275Z" fill="white"/>
    <path fill-rule="evenodd" clip-rule="evenodd" d="M15.8483 12.7001L16.7928 11.7548C17.0247 11.5237 17.0247 11.1468 16.7928 10.9157C16.5616 10.6837 16.1848 10.6837 15.9536 10.9157L15.0083 11.8601C14.7772 12.0921 14.7772 12.4681 15.0083 12.7001C15.2403 12.9313 15.6163 12.9313 15.8483 12.7001Z" fill="white"/>
    <path fill-rule="evenodd" clip-rule="evenodd" d="M16.0803 14.4482H17.4166C17.7443 14.4482 18.0103 14.1822 18.0103 13.8545C18.0103 13.5267 17.7443 13.2607 17.4166 13.2607H16.0803C15.7533 13.2607 15.4873 13.5267 15.4873 13.8545C15.4865 14.1822 15.7533 14.4482 16.0803 14.4482Z" fill="white"/>
    <path fill-rule="evenodd" clip-rule="evenodd" d="M15.0083 15.8483L15.9536 16.7928C16.1848 17.0247 16.5616 17.0247 16.7928 16.7928C17.0247 16.5616 17.0247 16.1848 16.7928 15.9536L15.8483 15.0083C15.6163 14.7772 15.2403 14.7772 15.0083 15.0083C14.7772 15.2403 14.7772 15.6163 15.0083 15.8483Z" fill="white"/>
    <path fill-rule="evenodd" clip-rule="evenodd" d="M13.2598 16.0806V17.4169C13.2598 17.7446 13.5258 18.0106 13.8535 18.0106C14.1813 18.0106 14.4473 17.7446 14.4473 17.4169V16.0806C14.4473 15.7536 14.1813 15.4876 13.8535 15.4868C13.5258 15.4868 13.2598 15.7536 13.2598 16.0806Z" fill="white"/>
    <path fill-rule="evenodd" clip-rule="evenodd" d="M11.8596 15.0083L10.9152 15.9536C10.6832 16.1848 10.6832 16.5616 10.9152 16.7928C11.1463 17.0247 11.5232 17.0247 11.7543 16.7928L12.6996 15.8483C12.9308 15.6163 12.9308 15.2403 12.6996 15.0083C12.4676 14.7772 12.0916 14.7772 11.8596 15.0083Z" fill="white"/>
    <path fill-rule="evenodd" clip-rule="evenodd" d="M11.6266 13.2607H10.291C9.96327 13.2607 9.69727 13.5267 9.69727 13.8545C9.69727 14.1822 9.96327 14.4482 10.291 14.4482H11.6266C11.9543 14.4482 12.2211 14.1822 12.2203 13.8545C12.2203 13.5267 11.9543 13.2607 11.6266 13.2607Z" fill="white"/>
    <path fill-rule="evenodd" clip-rule="evenodd" d="M12.6996 11.8601L11.7543 10.9157C11.5232 10.6837 11.1463 10.6837 10.9152 10.9157C10.6832 11.1468 10.6832 11.5237 10.9152 11.7548L11.8596 12.7001C12.0916 12.9313 12.4676 12.9313 12.6996 12.7001C12.9308 12.4681 12.9308 12.0921 12.6996 11.8601Z" fill="white"/>
  </g>
  <defs>
    <clipPath id="clip0_218_4868">
      <rect width="19" height="19" fill="white"/>
    </clipPath>
  </defs>
</svg>