<svg xmlns="http://www.w3.org/2000/svg" width="20" height="20" viewBox="0 0 20 20" fill="none">
  <path fill-rule="evenodd" clip-rule="evenodd" d="M9.58366 16.8854H2.45866C2.41449 16.8854 2.37199 16.8671 2.34116 16.8363C2.30949 16.8046 2.29199 16.7629 2.29199 16.7188V15.5096C2.29199 14.8179 2.78616 14.2079 3.54783 13.6896C4.90783 12.7613 7.10866 12.1763 9.58366 12.1763C9.92866 12.1763 10.2087 11.8963 10.2087 11.5513C10.2087 11.2071 9.92866 10.9263 9.58366 10.9263C6.81533 10.9263 4.36449 11.6188 2.84283 12.6563C1.68199 13.4479 1.04199 14.4538 1.04199 15.5096V16.7188C1.04199 17.0938 1.19116 17.4546 1.45699 17.7204C1.72283 17.9854 2.08283 18.1354 2.45866 18.1354H9.58366C9.92866 18.1346 10.2087 17.8546 10.2087 17.5096C10.2087 17.1654 9.92866 16.8846 9.58366 16.8854Z" fill="#071D3F"/>
  <path fill-rule="evenodd" clip-rule="evenodd" d="M9.58333 1.0415C7.05333 1.0415 5 3.09484 5 5.62484C5 8.15484 7.05333 10.2082 9.58333 10.2082C12.1133 10.2082 14.1667 8.15484 14.1667 5.62484C14.1667 3.09484 12.1133 1.0415 9.58333 1.0415ZM9.58333 2.2915C11.4233 2.2915 12.9167 3.78484 12.9167 5.62484C12.9167 7.46484 11.4233 8.95817 9.58333 8.95817C7.74333 8.95817 6.25 7.46484 6.25 5.62484C6.25 3.78484 7.74333 2.2915 9.58333 2.2915Z" fill="#071D3F"/>
  <path fill-rule="evenodd" clip-rule="evenodd" d="M14.5836 11.6147C12.9452 11.6147 11.6152 12.9447 11.6152 14.5831C11.6152 16.2214 12.9452 17.5522 14.5836 17.5522C16.2219 17.5522 17.5527 16.2214 17.5527 14.5831C17.5527 12.9447 16.2219 11.6147 14.5836 11.6147ZM14.5836 12.8647C15.5319 12.8647 16.3027 13.6347 16.3027 14.5831C16.3027 15.5314 15.5319 16.3022 14.5836 16.3022C13.6352 16.3022 12.8644 15.5314 12.8644 14.5831C12.8644 13.6347 13.6352 12.8647 14.5836 12.8647Z" fill="#071D3F"/>
  <path fill-rule="evenodd" clip-rule="evenodd" d="M15.209 12.2388V10.833C15.209 10.488 14.929 10.208 14.584 10.208C14.239 10.208 13.959 10.488 13.959 10.833V12.2397C13.959 12.5838 14.239 12.8647 14.584 12.8647C14.929 12.8638 15.209 12.5838 15.209 12.2388Z" fill="#071D3F"/>
  <path fill-rule="evenodd" clip-rule="evenodd" d="M16.6829 13.3681L17.677 12.3731C17.9212 12.1298 17.9212 11.7331 17.677 11.4898C17.4337 11.2456 17.037 11.2456 16.7937 11.4898L15.7987 12.4839C15.5554 12.7281 15.5554 13.1239 15.7987 13.3681C16.0429 13.6114 16.4387 13.6114 16.6829 13.3681Z" fill="#071D3F"/>
  <path fill-rule="evenodd" clip-rule="evenodd" d="M16.9269 15.208H18.3336C18.6786 15.208 18.9586 14.928 18.9586 14.583C18.9586 14.238 18.6786 13.958 18.3336 13.958H16.9269C16.5827 13.958 16.3027 14.238 16.3027 14.583C16.3019 14.928 16.5827 15.208 16.9269 15.208Z" fill="#071D3F"/>
  <path fill-rule="evenodd" clip-rule="evenodd" d="M15.7987 16.6824L16.7937 17.6766C17.037 17.9207 17.4337 17.9207 17.677 17.6766C17.9212 17.4332 17.9212 17.0366 17.677 16.7932L16.6829 15.7982C16.4387 15.5549 16.0429 15.5549 15.7987 15.7982C15.5554 16.0424 15.5554 16.4382 15.7987 16.6824Z" fill="#071D3F"/>
  <path fill-rule="evenodd" clip-rule="evenodd" d="M13.959 16.9263V18.3329C13.959 18.6779 14.239 18.9579 14.584 18.9579C14.929 18.9579 15.209 18.6779 15.209 18.3329V16.9263C15.209 16.5821 14.929 16.3021 14.584 16.3013C14.239 16.3013 13.959 16.5821 13.959 16.9263Z" fill="#071D3F"/>
  <path fill-rule="evenodd" clip-rule="evenodd" d="M12.4849 15.7982L11.4907 16.7932C11.2466 17.0366 11.2466 17.4332 11.4907 17.6766C11.7341 17.9207 12.1307 17.9207 12.3741 17.6766L13.3691 16.6824C13.6124 16.4382 13.6124 16.0424 13.3691 15.7982C13.1249 15.5549 12.7291 15.5549 12.4849 15.7982Z" fill="#071D3F"/>
  <path fill-rule="evenodd" clip-rule="evenodd" d="M12.2398 13.958H10.834C10.489 13.958 10.209 14.238 10.209 14.583C10.209 14.928 10.489 15.208 10.834 15.208H12.2398C12.5848 15.208 12.8657 14.928 12.8648 14.583C12.8648 14.238 12.5848 13.958 12.2398 13.958Z" fill="#071D3F"/>
  <path fill-rule="evenodd" clip-rule="evenodd" d="M13.3691 12.4839L12.3741 11.4898C12.1307 11.2456 11.7341 11.2456 11.4907 11.4898C11.2466 11.7331 11.2466 12.1298 11.4907 12.3731L12.4849 13.3681C12.7291 13.6114 13.1249 13.6114 13.3691 13.3681C13.6124 13.1239 13.6124 12.7281 13.3691 12.4839Z" fill="#071D3F"/>
</svg>