<svg xmlns="http://www.w3.org/2000/svg" width="372" height="329" viewBox="0 0 372 329" fill="none">
  <path d="M338.33 73.6085C338.029 73.0894 337.957 72.4693 338.129 71.8948L346.002 45.6523C312.388 34.0368 277.959 23.5177 243.639 14.3769C224.559 9.295 205.115 4.53381 185.838 0.222656C166.562 4.53327 147.117 9.29445 128.037 14.3769C93.7149 23.5182 59.2865 34.0374 25.6745 45.6523L33.5473 71.8948C33.7196 72.4693 33.6468 73.0894 33.3468 73.6085C20.3503 96.0697 -19.5529 173.63 12.6329 228.619C30.9145 259.853 69.978 277.673 134.695 307.195L135.91 307.749C152.26 315.208 169.053 322.061 185.838 328.125C202.623 322.061 219.416 315.208 235.766 307.749L236.977 307.196C301.696 277.674 340.761 259.853 359.043 228.618C391.229 173.631 351.326 96.0703 338.33 73.6085ZM90.4489 89.8655C98.719 89.8655 105.629 95.6708 107.338 103.427L155.056 96.4931L177.231 51.5635C171.518 48.7389 167.588 42.8554 167.588 36.0511C167.588 26.4978 175.333 18.7527 184.887 18.7527C194.44 18.7527 202.185 26.4972 202.185 36.0511C202.185 42.8554 198.255 48.7389 192.543 51.5635L214.717 96.4931L264.278 103.695C265.884 95.8034 272.862 89.865 281.228 89.865C290.781 89.865 298.526 97.6095 298.526 107.163C298.526 116.717 290.782 124.462 281.228 124.462C276.167 124.462 271.615 122.288 268.452 118.825L233.153 153.233L241.615 202.571C242.482 202.437 243.37 202.367 244.275 202.367C253.829 202.367 261.573 210.112 261.573 219.665C261.573 229.219 253.829 236.964 244.275 236.964C234.721 236.964 226.976 229.219 226.976 219.665C226.976 216.714 227.718 213.935 229.022 211.503L184.887 188.3L140.557 211.606C141.827 214.013 142.55 216.754 142.55 219.665C142.55 229.219 134.805 236.964 125.251 236.964C115.697 236.964 107.953 229.219 107.953 219.665C107.953 210.112 115.697 202.367 125.251 202.367C126.24 202.367 127.208 202.454 128.151 202.614L136.621 153.233L102.29 119.768C99.1951 122.676 95.0318 124.461 90.4495 124.461C80.8956 124.461 73.151 116.717 73.151 107.163C73.1505 97.6101 80.8956 89.8655 90.4489 89.8655ZM127.605 269.253C127.027 269.008 126.401 268.753 125.741 268.463C125.093 268.149 124.404 267.814 123.677 267.462C122.221 266.753 120.609 265.968 118.855 265.114C118.2 264.752 117.519 264.375 116.823 263.99C116.834 264.027 116.846 264.062 116.856 264.1C117.624 267.278 113.866 271.298 107.911 272.752C104.914 273.523 102.056 273.32 99.7974 272.603C98.6717 272.239 97.707 271.731 96.9809 271.11C96.2585 270.482 95.8053 269.696 95.6395 268.857C95.3145 267.164 96.2797 265.478 98.0456 264.081C98.9283 263.382 100.009 262.755 101.227 262.232C101.836 261.969 102.477 261.737 103.149 261.529C103.83 261.307 104.538 261.114 105.268 260.955C107.269 260.516 109.149 260.402 110.799 260.553C110.642 260.455 110.486 260.357 110.327 260.259C109.308 259.624 108.26 258.972 107.184 258.302C106.652 257.958 106.092 257.639 105.563 257.262C105.03 256.89 104.492 256.512 103.946 256.131C103.498 255.818 103.044 255.499 102.588 255.18C102.712 258.318 98.5891 261.702 92.6713 262.488C89.6777 262.82 86.8046 262.364 84.6311 261.407C83.5321 260.944 82.6642 260.292 82.0315 259.569C81.3994 258.846 81.0151 258.04 80.945 257.187C80.6586 253.769 85.5502 250.947 91.3919 250.448C93.1801 250.27 94.8584 250.314 96.3471 250.546C95.4797 249.869 94.6041 249.185 93.7133 248.49C92.5784 247.505 91.4245 246.505 90.2527 245.489C89.9532 245.229 89.6494 244.965 89.3477 244.703C89.1303 246.104 88.0547 247.442 86.3812 248.492C85.4247 249.091 84.2713 249.594 82.9685 249.957C81.6625 250.323 80.258 250.495 78.7367 250.504C77.2214 250.508 75.7572 250.323 74.4125 249.989C73.069 249.653 71.8303 249.184 70.8465 248.546C68.8469 247.299 67.6045 245.646 67.6474 243.949C67.7251 240.545 72.9206 238.279 78.8269 238.404C80.3091 238.434 81.6804 238.628 82.9408 238.917C83.0598 238.942 83.1718 238.973 83.2881 239C83.2734 238.986 83.2593 238.973 83.2446 238.959C82.0826 237.802 80.9678 236.572 79.808 235.359C79.2324 234.748 78.6536 234.134 78.0714 233.517C77.822 233.248 77.5823 232.969 77.3431 232.689C76.3507 235.55 71.8015 237.627 66.2305 237.044C64.7179 236.882 63.2547 236.557 61.9671 236.065C60.697 235.559 59.5626 234.92 58.6272 234.198C56.7624 232.749 55.6608 231.008 55.9537 229.285C56.2157 227.58 57.6886 226.313 59.8181 225.586C61.9503 224.857 64.7016 224.68 67.68 225.041C69.1573 225.231 70.5264 225.558 71.7395 225.992C71.7629 226 71.7841 226.01 71.8075 226.019C70.1193 223.836 68.3888 221.642 66.818 219.297C65.4456 221.938 60.7323 223.439 55.2977 222.284C52.3404 221.616 49.8082 220.217 48.076 218.594C47.6488 218.185 47.2569 217.772 46.9542 217.333C46.6536 216.893 46.4118 216.447 46.2346 216.001C45.8802 215.11 45.7867 214.222 46.0052 213.395C46.8748 210.079 52.4241 209.042 58.0968 210.516C59.4963 210.864 60.7932 211.32 61.9411 211.857C61.5497 211.226 61.1606 210.599 60.7676 209.965C59.7719 208.253 58.805 206.514 57.8636 204.755C57.1244 205.827 55.7716 206.612 54.0253 207.004C52.9242 207.251 51.6697 207.342 50.3213 207.251C48.9674 207.163 47.5858 206.859 46.1476 206.364C44.7171 205.865 43.3985 205.205 42.2408 204.445C41.081 203.686 40.0793 202.828 39.3613 201.902C37.8873 200.067 37.2628 198.098 37.865 196.513C39.0694 193.329 44.7171 192.911 50.2528 194.985C51.5985 195.489 52.8002 196.102 53.8612 196.773C52.8242 194.562 51.829 192.327 50.8881 190.067C50.7865 189.81 50.6903 189.552 50.5903 189.294C48.5951 191.493 43.7469 191.856 38.82 189.532C37.4503 188.878 36.1589 188.095 35.13 187.198C34.0968 186.302 33.2359 185.324 32.5896 184.335C31.944 183.346 31.5129 182.347 31.339 181.407C31.1499 180.473 31.3053 179.572 31.6977 178.816C32.506 177.295 34.3148 176.585 36.566 176.603C38.8335 176.615 41.4614 177.366 44.1589 178.689C45.4389 179.33 46.5786 180.058 47.5559 180.832C46.7047 178.243 45.9183 175.64 45.1976 173.031C43.0056 175.019 38.0982 174.856 33.381 171.997C30.8385 170.383 28.8823 168.232 27.7861 166.127C27.217 165.08 26.9648 164.025 26.9148 163.068C26.8735 162.11 27.0768 161.241 27.5545 160.533C29.4661 157.691 35.0496 158.547 39.9255 161.812C41.1413 162.606 42.2099 163.469 43.1126 164.359C43.0545 164.094 42.9958 163.826 42.9382 163.562L42.6528 162.231L42.4273 160.893C42.28 160.002 42.1332 159.113 41.987 158.227C41.8636 157.569 41.7571 156.912 41.656 156.254C40.6043 157.054 39.045 157.363 37.2329 157.153C36.1111 157.022 34.8958 156.693 33.6522 156.161C32.4326 155.626 31.2059 154.885 30.0172 153.941C28.8302 152.997 27.8013 151.938 26.9588 150.836C26.5376 150.286 26.1626 149.725 25.8381 149.164C25.5337 148.6 25.2881 148.036 25.0903 147.481C24.3032 145.259 24.363 143.192 25.4549 141.896C26.5382 140.595 28.4964 140.306 30.671 140.828C32.8804 141.348 35.3844 142.661 37.6552 144.558C38.7906 145.508 39.7597 146.516 40.5407 147.531C40.5619 147.557 40.5793 147.583 40.6 147.609C40.4847 145.896 40.3701 144.197 40.257 142.514C40.2092 141.659 40.1287 140.81 40.1097 139.962C40.1059 139.693 40.1016 139.428 40.0978 139.159C37.5438 140.79 32.6755 139.569 28.6726 135.62C27.5991 134.548 26.63 133.379 25.9686 132.19C25.2908 131 24.8033 129.79 24.5223 128.642C24.2413 127.493 24.1668 126.406 24.3141 125.461C24.4446 124.515 24.8929 123.716 25.5147 123.133C26.7844 121.965 28.7258 121.898 30.8423 122.664C32.9761 123.431 35.2029 125.014 37.3095 127.159C38.464 128.346 39.3819 129.578 40.0869 130.789C40.1249 129.718 40.1624 128.653 40.1999 127.6C40.2364 126.803 40.2407 126.009 40.3032 125.224C40.3701 124.439 40.4369 123.66 40.5027 122.887C40.5288 122.581 40.5548 122.281 40.5809 121.977C37.9193 123.499 33.0484 121.747 29.3753 117.257C27.5029 114.886 26.3914 112.205 26.0599 109.853C25.9827 109.266 25.9354 108.697 25.9745 108.165C26.0164 107.634 26.1083 107.134 26.2496 106.675C26.5327 105.757 27.0165 105.006 27.7051 104.497C30.4629 102.455 35.436 105.127 38.9308 109.83C40.02 111.263 40.881 112.725 41.4723 114.123C41.481 114.062 41.4892 113.999 41.4979 113.938C41.5979 113.221 41.6973 112.511 41.7952 111.807C41.8446 111.456 41.8941 111.106 41.943 110.758C42.0088 110.412 42.074 110.069 42.1392 109.727C42.4006 108.36 42.6572 107.022 42.9072 105.713C42.9588 105.444 43.0094 105.181 43.0605 104.913C41.7207 105.649 39.8809 105.483 37.9612 104.542C35.9448 103.549 33.7854 101.668 32.2195 99.102C30.6363 96.5361 29.7427 93.725 29.7237 91.364C29.7368 89.0111 30.4939 87.0876 31.963 86.2316C34.9056 84.5081 39.564 87.7268 42.5539 92.8081C43.3159 94.0848 43.8371 95.3436 44.2953 96.5769C44.4589 97.0312 44.5894 97.4747 44.7035 97.9117C44.9568 96.8867 45.1932 95.8839 45.5041 94.9311C46.1585 92.7722 46.771 90.7509 47.3379 88.8812C48.001 87.0458 48.6103 85.3598 49.1609 83.8369C49.4364 83.077 49.6979 82.3574 49.9435 81.6802C50.2131 81.0122 50.4854 80.3937 50.7289 79.8143C51.2213 78.6588 51.6398 77.6756 51.979 76.8788C52.6611 75.2885 53.0247 74.4401 53.0247 74.4401C53.0247 74.4401 52.7133 75.3091 52.129 76.9391C51.8355 77.7522 51.473 78.755 51.0474 79.9344C50.8354 80.5242 50.6082 81.1573 50.3658 81.8329C50.1533 82.5194 49.9278 83.2488 49.6897 84.019C49.2147 85.5587 48.6885 87.2637 48.1162 89.1193C47.6309 90.9993 47.1064 93.032 46.546 95.2028C46.2406 96.2812 46.0318 97.4209 45.7873 98.5857C45.6106 99.4412 45.4296 100.321 45.2459 101.211C45.3807 100.875 45.5454 100.536 45.7383 100.196C46.2656 99.2694 47.0053 98.3405 47.9227 97.4774C48.825 96.61 50.0212 95.8377 51.2947 95.1757C56.451 92.5353 61.8889 92.9755 63.627 95.5458C64.4939 96.8372 64.2667 98.4226 63.1748 100.007C62.1161 101.599 60.3165 103.235 57.8152 104.572C55.2982 105.903 52.7644 106.728 50.5294 106.88C48.3027 107.035 46.433 106.516 45.4628 105.201C45.0329 104.638 44.8301 103.981 44.8198 103.268C44.766 103.527 44.7122 103.786 44.6725 104.051C44.572 104.687 44.4703 105.331 44.3671 105.982C44.1611 107.284 43.9507 108.616 43.7355 109.976C43.6817 110.315 43.6273 110.657 43.573 111C43.5355 111.346 43.4974 111.694 43.4594 112.043C43.3839 112.741 43.3077 113.446 43.2306 114.158C43.1382 115.029 43.0441 115.912 42.9496 116.802C43.8268 114.848 45.5014 112.791 47.882 111.194C52.7578 107.996 58.2278 107.825 60.2176 110.177C60.7143 110.767 60.9453 111.462 60.9356 112.22C60.9307 112.599 60.866 112.994 60.7442 113.4C60.6252 113.806 60.4855 114.229 60.2736 114.655C59.448 116.362 57.75 118.178 55.4254 119.79C50.9327 123.018 45.4639 124.215 43.2719 121.821C42.9903 121.515 42.7778 121.165 42.6278 120.782C42.5822 121.523 42.536 122.268 42.4898 123.02C42.4425 123.784 42.3952 124.553 42.3474 125.328C42.3039 126.103 42.3186 126.887 42.3017 127.674C42.2811 129.249 42.2604 130.844 42.2392 132.46C42.2403 132.665 42.2463 132.872 42.2501 133.078C42.9507 131.192 44.4002 129.191 46.359 127.499C48.4951 125.632 51.0566 124.502 53.2421 124.104C55.4444 123.706 57.3571 124.032 58.4626 125.088C59.0284 125.618 59.2833 126.28 59.4072 127.036C59.5132 127.791 59.392 128.637 59.061 129.532C58.73 130.427 58.1903 131.373 57.4603 132.329C56.7146 133.285 55.8972 134.252 54.8428 135.184C50.6832 138.902 45.3633 140.712 42.9485 138.581C42.7409 138.399 42.5637 138.192 42.4115 137.967C42.4332 138.593 42.455 139.219 42.4767 139.85C42.511 140.684 42.6055 141.519 42.6664 142.359C42.8017 144.04 42.9387 145.736 43.0768 147.446C43.1702 148.123 43.2578 148.804 43.3442 149.487C43.5545 148.73 43.8529 147.95 44.26 147.168C44.8834 146.043 45.6959 144.921 46.6841 143.871C48.6608 141.769 50.9648 140.363 53.0883 139.719C55.2471 139.074 57.1473 139.182 58.4109 140.105C59.6665 141.032 59.9936 142.601 59.5067 144.457C59.3865 144.921 59.2099 145.404 58.9941 145.9C58.7985 146.393 58.5544 146.9 58.2636 147.415C57.6821 148.444 56.913 149.505 55.97 150.551C55.0286 151.596 53.996 152.528 52.9529 153.31C51.9339 154.089 50.8838 154.719 49.8609 155.163C47.8151 156.051 45.8786 156.186 44.5225 155.271C44.3567 155.163 44.2067 155.04 44.0698 154.906C44.2176 155.866 44.3812 156.826 44.5747 157.786C44.7301 158.655 44.8861 159.526 45.0421 160.4L45.2807 161.712L45.5791 163.014C45.7862 163.937 45.9954 164.867 46.2036 165.794C46.5645 163.972 47.4401 161.971 48.8195 160.111C52.3366 155.471 57.4315 153.483 60.0991 155.037C60.766 155.427 61.2182 156.006 61.4644 156.724C61.7193 157.441 61.7269 158.305 61.6432 159.245C61.4345 161.132 60.4545 163.41 58.7881 165.709C55.6287 170.252 50.8702 173.199 48.0053 171.671C47.8608 171.598 47.7265 171.511 47.5977 171.419C48.5543 174.895 49.6294 178.361 50.8213 181.798C50.8952 181.136 51.0392 180.443 51.2257 179.742C51.5665 178.511 52.092 177.24 52.8062 176.001C54.2025 173.529 56.2396 171.611 58.1674 170.507C60.1116 169.4 62.0237 169.07 63.4189 169.7C64.1287 170.013 64.5923 170.552 64.9586 171.226C65.3098 171.905 65.4761 172.744 65.4619 173.7C65.4473 174.656 65.2521 175.729 64.8815 176.874C64.5064 178.021 64.0466 179.209 63.3629 180.438C60.6698 185.331 56.2488 188.801 53.2655 187.59C53.128 187.535 53.0024 187.462 52.8758 187.389C53.0845 187.927 53.291 188.466 53.5057 189.002C54.6721 191.836 55.9227 194.634 57.2413 197.389C57.2201 196.709 57.2505 195.996 57.3516 195.258C57.556 193.995 57.962 192.662 58.5452 191.345C60.885 186.062 65.394 182.992 68.367 183.903C69.8573 184.363 70.6835 185.738 70.8367 187.654C70.8954 188.621 70.8579 189.692 70.6509 190.856C70.4405 192.021 70.0644 193.278 69.5187 194.579C68.9806 195.875 68.2931 197.107 67.5936 198.177C66.8881 199.249 66.1044 200.192 65.2853 200.949C63.6477 202.465 61.8644 203.232 60.2844 202.816C60.1447 202.782 60.0165 202.727 59.8871 202.676C60.9307 204.671 62.0063 206.642 63.1205 208.579C63.8705 209.801 64.6157 211.015 65.3603 212.229C65.0961 210.376 65.2309 208.203 65.9288 205.97C67.7224 200.424 71.8759 196.861 74.9028 197.449C75.6604 197.598 76.2773 197.996 76.7458 198.593C76.9801 198.892 77.1774 199.24 77.3372 199.633C77.4997 200.025 77.6551 200.442 77.7568 200.909C78.1856 202.757 77.9888 205.247 77.1991 207.952C75.711 213.287 72.1912 217.644 68.9866 217.146C68.8024 217.117 68.6246 217.07 68.4513 217.013C68.5861 217.212 68.7214 217.413 68.8562 217.611C70.7688 220.583 72.9548 223.306 74.987 226.072C75.0305 226.125 75.0729 226.176 75.1164 226.228C74.8903 225.46 74.7539 224.603 74.6924 223.699C74.6087 222.424 74.6859 221.049 74.9517 219.642C75.4577 216.844 76.723 214.377 78.1905 212.69C79.6607 211.002 81.3559 210.059 82.8783 210.194C84.3741 210.352 85.5383 211.468 86.1312 213.287C86.4318 214.195 86.6003 215.272 86.6275 216.477C86.6709 217.667 86.6139 218.952 86.3791 220.335C85.4507 225.845 82.4277 230.586 79.215 230.43C78.9612 230.418 78.7166 230.366 78.4764 230.296C78.9318 230.849 79.377 231.409 79.8509 231.938C80.4118 232.556 80.9695 233.172 81.5244 233.784C82.6413 235.001 83.7126 236.238 84.8311 237.403C85.4105 237.984 85.9861 238.561 86.5579 239.135C86.1546 238.299 85.8296 237.348 85.616 236.305C85.3828 235.053 85.3301 233.654 85.4431 232.219C85.904 226.456 89.1401 222.071 92.2463 221.942C93.8035 221.882 95.0356 222.904 95.8118 224.66C96.1846 225.554 96.5123 226.568 96.6988 227.737C96.8863 228.905 96.9477 230.216 96.864 231.623C96.7857 233.023 96.5466 234.414 96.2411 235.655C95.9319 236.9 95.5063 238.049 94.9862 239.036C93.9459 241.009 92.5197 242.326 90.8908 242.46C90.5147 242.497 90.1516 242.462 89.801 242.368C89.8271 242.392 89.8516 242.419 89.8782 242.443C90.4527 242.965 91.0234 243.484 91.5892 243.999C92.7219 245.03 93.8372 246.044 94.9345 247.042C96.0748 247.99 97.1956 248.923 98.2956 249.838C98.7326 250.201 99.1636 250.558 99.5941 250.915C98.2935 249.162 97.382 246.525 97.264 243.552C97.1091 237.728 99.843 232.989 102.891 232.533C103.655 232.421 104.368 232.59 105.008 232.996C105.649 233.402 106.205 234.058 106.726 234.845C107.742 236.446 108.401 238.835 108.539 241.671C108.921 247.186 107.06 252.464 103.869 253.07C103.316 253.187 102.764 253.148 102.229 252.98C103.102 253.635 103.964 254.281 104.807 254.912C105.335 255.307 105.856 255.698 106.372 256.084C106.885 256.474 107.427 256.808 107.944 257.165C108.983 257.871 109.996 258.559 110.98 259.227C111.731 259.733 112.456 260.243 113.187 260.704C111.97 259.097 111.023 256.841 110.618 254.288C110.507 253.583 110.443 252.887 110.421 252.208C110.409 251.516 110.444 250.837 110.514 250.186C110.655 248.884 110.948 247.685 111.358 246.644C112.18 244.563 113.463 243.108 114.945 242.723C115.691 242.525 116.398 242.641 117.093 242.953C117.793 243.259 118.449 243.806 119.037 244.557C120.22 246.046 121.098 248.422 121.621 251.123C122.6 256.606 121.337 262.075 118.249 263.013C117.907 263.118 117.556 263.16 117.202 263.149C117.902 263.575 118.588 263.993 119.245 264.393C120.948 265.326 122.514 266.182 123.927 266.956C124.635 267.342 125.305 267.708 125.936 268.053C126.58 268.369 127.184 268.664 127.747 268.94C128.874 269.489 129.833 269.956 130.61 270.335C132.164 271.097 132.994 271.504 132.994 271.504C132.994 271.504 132.141 271.149 130.544 270.484C129.749 270.152 128.763 269.739 127.605 269.253ZM239.553 300.875C231.295 302.416 223.036 303.958 214.778 305.499C214.332 305.192 209.798 301.948 208.512 296.165C203.779 297.542 198.403 298.646 192.442 299.118C180.479 300.065 170.137 298.173 162.174 295.712C161.033 301.78 156.27 305.184 155.812 305.499C147.553 303.958 139.295 302.416 131.036 300.875C133.459 298.342 135.881 295.81 138.304 293.277C135.881 288.762 133.459 284.247 131.036 279.733C137.812 280.167 144.588 280.602 151.364 281.036C152.351 277.849 153.339 274.662 154.326 271.475C166.681 270.467 179.692 269.768 193.306 269.493C202.159 269.314 210.754 269.325 219.073 269.493C220.278 273.267 221.483 277.04 222.688 280.815C228.31 280.454 233.932 280.094 239.554 279.734C237.131 284.248 234.709 288.763 232.287 293.277C234.708 295.81 237.131 298.342 239.553 300.875ZM347.152 128.644C346.871 129.792 346.384 131.002 345.706 132.191C345.045 133.38 344.075 134.549 343.002 135.622C338.999 139.571 334.131 140.791 331.577 139.161C331.572 139.429 331.569 139.694 331.565 139.963C331.546 140.811 331.466 141.661 331.418 142.516C331.304 144.198 331.19 145.898 331.075 147.611C331.095 147.585 331.113 147.559 331.134 147.533C331.915 146.518 332.885 145.51 334.02 144.56C336.291 142.663 338.795 141.35 341.004 140.83C343.178 140.308 345.137 140.597 346.22 141.897C347.312 143.195 347.371 145.261 346.585 147.482C346.387 148.037 346.141 148.602 345.837 149.166C345.512 149.727 345.137 150.287 344.716 150.838C343.873 151.939 342.844 152.998 341.658 153.943C340.469 154.887 339.243 155.628 338.023 156.163C336.779 156.694 335.564 157.023 334.442 157.154C332.63 157.365 331.071 157.055 330.019 156.256C329.919 156.913 329.811 157.571 329.688 158.228C329.542 159.114 329.395 160.003 329.248 160.895L329.022 162.233L328.737 163.563C328.679 163.827 328.621 164.095 328.562 164.36C329.465 163.47 330.534 162.607 331.75 161.813C336.625 158.548 342.209 157.692 344.121 160.535C344.598 161.243 344.802 162.112 344.76 163.07C344.71 164.026 344.458 165.081 343.889 166.129C342.793 168.233 340.837 170.384 338.294 171.998C333.577 174.858 328.67 175.021 326.478 173.033C325.757 175.641 324.971 178.244 324.119 180.834C325.096 180.06 326.236 179.331 327.516 178.69C330.214 177.368 332.842 176.617 335.109 176.604C337.36 176.587 339.169 177.296 339.977 178.818C340.37 179.574 340.525 180.474 340.336 181.409C340.162 182.348 339.731 183.348 339.085 184.337C338.44 185.326 337.579 186.303 336.546 187.199C335.517 188.096 334.225 188.88 332.856 189.534C327.929 191.857 323.08 191.495 321.085 189.296C320.985 189.553 320.889 189.812 320.788 190.069C319.847 192.328 318.852 194.563 317.815 196.774C318.875 196.104 320.077 195.49 321.423 194.987C326.959 192.914 332.606 193.331 333.811 196.515C334.413 198.1 333.789 200.068 332.315 201.904C331.597 202.83 330.595 203.688 329.435 204.446C328.278 205.207 326.959 205.866 325.529 206.366C324.09 206.861 322.709 207.165 321.355 207.253C320.007 207.343 318.752 207.253 317.651 207.006C315.905 206.613 314.552 205.829 313.813 204.756C312.871 206.515 311.904 208.254 310.909 209.966C310.516 210.6 310.126 211.227 309.735 211.859C310.884 211.322 312.18 210.866 313.579 210.518C319.253 209.044 324.802 210.081 325.671 213.397C325.889 214.224 325.795 215.111 325.442 216.003C325.264 216.448 325.023 216.895 324.722 217.335C324.419 217.773 324.027 218.187 323.6 218.596C321.868 220.218 319.336 221.618 316.379 222.285C310.944 223.44 306.231 221.939 304.858 219.299C303.287 221.643 301.557 223.838 299.869 226.02C299.892 226.012 299.913 226.002 299.937 225.994C301.15 225.56 302.518 225.232 303.996 225.042C306.975 224.682 309.726 224.859 311.858 225.588C313.988 226.314 315.461 227.582 315.723 229.287C316.016 231.01 314.914 232.751 313.049 234.2C312.114 234.921 310.979 235.562 309.709 236.067C308.422 236.558 306.958 236.883 305.446 237.045C299.875 237.629 295.326 235.551 294.333 232.691C294.094 232.971 293.854 233.249 293.605 233.518C293.023 234.135 292.444 234.75 291.868 235.36C290.708 236.574 289.594 237.804 288.432 238.961C288.417 238.975 288.403 238.988 288.388 239.002C288.505 238.975 288.616 238.943 288.735 238.918C289.996 238.63 291.367 238.435 292.849 238.406C298.755 238.281 303.951 240.547 304.028 243.951C304.071 245.648 302.829 247.301 300.829 248.547C299.846 249.185 298.607 249.655 297.263 249.99C295.918 250.325 294.454 250.51 292.939 250.506C291.418 250.496 290.013 250.325 288.707 249.958C287.405 249.596 286.252 249.092 285.294 248.493C283.621 247.444 282.545 246.105 282.328 244.705C282.027 244.967 281.722 245.231 281.423 245.49C280.251 246.506 279.097 247.507 277.962 248.491C277.072 249.187 276.196 249.871 275.329 250.548C276.817 250.315 278.496 250.272 280.284 250.45C286.125 250.948 291.017 253.771 290.731 257.189C290.661 258.041 290.276 258.847 289.644 259.571C289.012 260.294 288.144 260.946 287.045 261.409C284.871 262.366 281.998 262.822 279.004 262.489C273.086 261.704 268.963 258.32 269.088 255.182C268.632 255.501 268.177 255.819 267.73 256.133C267.185 256.514 266.645 256.891 266.113 257.264C265.583 257.64 265.024 257.959 264.492 258.303C263.416 258.973 262.368 259.626 261.349 260.26C261.19 260.358 261.034 260.457 260.877 260.555C262.527 260.405 264.407 260.518 266.408 260.956C267.137 261.115 267.846 261.308 268.527 261.53C269.199 261.739 269.84 261.971 270.449 262.233C271.666 262.756 272.747 263.385 273.63 264.083C275.396 265.48 276.361 267.166 276.036 268.858C275.87 269.698 275.417 270.484 274.695 271.112C273.969 271.733 273.004 272.24 271.878 272.604C269.619 273.321 266.762 273.524 263.765 272.753C257.809 271.299 254.052 267.279 254.82 264.102C254.829 264.065 254.842 264.029 254.852 263.992C254.158 264.377 253.476 264.753 252.821 265.116C251.066 265.97 249.454 266.754 247.998 267.463C247.271 267.816 246.583 268.15 245.934 268.464C245.275 268.756 244.649 269.009 244.07 269.255C242.912 269.74 241.927 270.154 241.128 270.488C239.531 271.154 238.679 271.508 238.679 271.508C238.679 271.508 239.508 271.101 241.063 270.339C241.839 269.961 242.799 269.494 243.925 268.944C244.488 268.669 245.092 268.373 245.737 268.057C246.367 267.713 247.038 267.347 247.745 266.96C249.159 266.186 250.724 265.33 252.428 264.398C253.085 263.997 253.771 263.58 254.47 263.153C254.116 263.164 253.766 263.123 253.423 263.017C250.335 262.08 249.072 256.61 250.052 251.128C250.574 248.426 251.451 246.051 252.635 244.562C253.224 243.811 253.88 243.264 254.579 242.958C255.274 242.645 255.982 242.529 256.728 242.727C258.209 243.112 259.493 244.567 260.314 246.648C260.724 247.689 261.017 248.887 261.159 250.19C261.229 250.84 261.263 251.521 261.251 252.213C261.23 252.891 261.166 253.587 261.055 254.293C260.651 256.845 259.702 259.102 258.486 260.708C259.217 260.246 259.942 259.738 260.693 259.232C261.677 258.563 262.69 257.876 263.729 257.17C264.245 256.812 264.788 256.479 265.301 256.088C265.816 255.703 266.338 255.312 266.865 254.916C267.708 254.285 268.57 253.638 269.444 252.984C268.909 253.152 268.357 253.191 267.804 253.074C264.613 252.469 262.752 247.191 263.134 241.676C263.272 238.84 263.93 236.451 264.947 234.849C265.468 234.063 266.025 233.407 266.665 233.001C267.305 232.595 268.018 232.425 268.782 232.537C271.83 232.993 274.564 237.732 274.409 243.557C274.291 246.529 273.379 249.167 272.079 250.919C272.509 250.563 272.94 250.205 273.377 249.842C274.477 248.927 275.598 247.994 276.738 247.046C277.835 246.048 278.951 245.033 280.084 244.003C280.65 243.489 281.22 242.97 281.795 242.447C281.821 242.423 281.846 242.397 281.872 242.372C281.522 242.466 281.158 242.501 280.782 242.464C279.153 242.331 277.727 241.014 276.687 239.04C276.166 238.054 275.741 236.904 275.432 235.659C275.127 234.419 274.887 233.028 274.809 231.627C274.725 230.22 274.787 228.91 274.974 227.742C275.161 226.572 275.488 225.559 275.861 224.665C276.638 222.909 277.87 221.886 279.427 221.946C282.533 222.076 285.769 226.46 286.23 232.223C286.342 233.658 286.29 235.057 286.057 236.309C285.843 237.352 285.518 238.304 285.115 239.14C285.687 238.566 286.262 237.989 286.842 237.407C287.96 236.243 289.032 235.005 290.149 233.788C290.703 233.176 291.261 232.561 291.822 231.942C292.296 231.413 292.741 230.854 293.197 230.3C292.956 230.37 292.712 230.422 292.458 230.434C289.245 230.591 286.222 225.85 285.294 220.339C285.059 218.956 285.001 217.671 285.045 216.481C285.073 215.277 285.241 214.199 285.542 213.292C286.134 211.472 287.299 210.357 288.795 210.198C290.317 210.064 292.013 211.006 293.482 212.695C294.949 214.382 296.215 216.848 296.721 219.646C296.987 221.054 297.064 222.428 296.98 223.704C296.919 224.607 296.783 225.465 296.557 226.233C296.6 226.18 296.642 226.129 296.686 226.076C298.718 223.31 300.904 220.587 302.817 217.616C302.951 217.417 303.087 217.216 303.221 217.017C303.048 217.075 302.87 217.122 302.686 217.15C299.481 217.648 295.962 213.292 294.473 207.956C293.684 205.251 293.487 202.762 293.916 200.913C294.017 200.447 294.173 200.029 294.335 199.637C294.495 199.245 294.692 198.896 294.927 198.597C295.396 198 296.013 197.602 296.77 197.453C299.797 196.866 303.951 200.429 305.744 205.974C306.442 208.208 306.577 210.381 306.313 212.233C307.057 211.02 307.802 209.805 308.552 208.583C309.667 206.647 310.743 204.676 311.786 202.68C311.656 202.732 311.528 202.786 311.389 202.82C309.809 203.236 308.026 202.469 306.388 200.953C305.569 200.196 304.785 199.253 304.079 198.181C303.379 197.112 302.692 195.88 302.154 194.583C301.609 193.283 301.232 192.026 301.022 190.86C300.815 189.696 300.777 188.625 300.836 187.658C300.989 185.743 301.816 184.367 303.306 183.907C306.279 182.997 310.788 186.066 313.128 191.349C313.711 192.666 314.117 194 314.321 195.262C314.422 196.001 314.453 196.713 314.432 197.394C315.75 194.638 317.001 191.84 318.167 189.006C318.382 188.47 318.588 187.931 318.797 187.393C318.671 187.466 318.545 187.539 318.407 187.594C315.424 188.805 311.003 185.335 308.31 180.442C307.626 179.213 307.167 178.025 306.792 176.878C306.421 175.733 306.226 174.66 306.211 173.704C306.197 172.748 306.363 171.909 306.714 171.231C307.081 170.557 307.544 170.017 308.254 169.705C309.649 169.075 311.561 169.404 313.506 170.512C315.433 171.614 317.471 173.532 318.867 176.005C319.581 177.245 320.107 178.515 320.447 179.746C320.634 180.447 320.778 181.14 320.852 181.803C322.044 178.365 323.119 174.899 324.075 171.423C323.946 171.515 323.812 171.601 323.668 171.675C320.803 173.203 316.044 170.256 312.885 165.713C311.218 163.414 310.238 161.137 310.03 159.249C309.946 158.309 309.954 157.445 310.209 156.729C310.455 156.011 310.907 155.432 311.574 155.041C314.241 153.488 319.336 155.476 322.853 160.115C324.233 161.975 325.108 163.976 325.469 165.799C325.678 164.872 325.887 163.941 326.094 163.019L326.392 161.716L326.631 160.404C326.787 159.53 326.943 158.659 327.098 157.791C327.292 156.831 327.455 155.87 327.603 154.911C327.466 155.044 327.316 155.167 327.15 155.276C325.794 156.19 323.858 156.056 321.812 155.167C320.789 154.724 319.739 154.093 318.72 153.315C317.677 152.533 316.644 151.601 315.703 150.555C314.76 149.51 313.991 148.449 313.409 147.419C313.119 146.905 312.874 146.398 312.679 145.904C312.463 145.408 312.287 144.925 312.166 144.461C311.679 142.605 312.007 141.036 313.262 140.11C314.526 139.187 316.426 139.079 318.585 139.724C320.708 140.367 323.013 141.773 324.989 143.875C325.977 144.925 326.79 146.048 327.413 147.173C327.82 147.954 328.118 148.734 328.329 149.491C328.415 148.809 328.503 148.128 328.596 147.45C328.734 145.74 328.871 144.044 329.007 142.364C329.067 141.523 329.162 140.688 329.196 139.854C329.218 139.223 329.24 138.597 329.261 137.971C329.11 138.196 328.932 138.403 328.724 138.585C326.309 140.716 320.99 138.906 316.83 135.188C315.776 134.256 314.958 133.29 314.213 132.334C313.483 131.378 312.943 130.432 312.612 129.537C312.281 128.641 312.16 127.796 312.266 127.04C312.389 126.284 312.645 125.622 313.21 125.092C314.316 124.036 316.229 123.711 318.431 124.108C320.616 124.506 323.177 125.636 325.314 127.503C327.273 129.195 328.722 131.197 329.423 133.082C329.427 132.876 329.432 132.67 329.434 132.465C329.413 130.849 329.392 129.253 329.371 127.678C329.354 126.891 329.369 126.108 329.326 125.333C329.278 124.557 329.23 123.788 329.183 123.024C329.137 122.273 329.091 121.527 329.045 120.787C328.896 121.17 328.683 121.519 328.401 121.825C326.209 124.219 320.74 123.022 316.248 119.795C313.923 118.183 312.225 116.366 311.399 114.659C311.187 114.233 311.048 113.81 310.929 113.404C310.807 112.998 310.742 112.603 310.737 112.225C310.728 111.466 310.959 110.771 311.455 110.181C313.445 107.83 318.915 108.001 323.791 111.198C326.172 112.795 327.846 114.853 328.723 116.806C328.629 115.917 328.535 115.033 328.442 114.163C328.366 113.451 328.289 112.745 328.214 112.047C328.176 111.697 328.137 111.35 328.1 111.004C328.046 110.661 327.991 110.32 327.937 109.98C327.722 108.619 327.512 107.288 327.306 105.986C327.203 105.335 327.101 104.691 327 104.055C326.961 103.79 326.907 103.531 326.853 103.272C326.842 103.985 326.64 104.643 326.21 105.206C325.24 106.52 323.37 107.039 321.144 106.885C318.909 106.732 316.375 105.907 313.858 104.576C311.357 103.239 309.557 101.604 308.498 100.011C307.407 98.427 307.18 96.8415 308.046 95.5501C309.784 92.9793 315.221 92.5396 320.378 95.18C321.652 95.842 322.848 96.6143 323.75 97.4818C324.668 98.3454 325.407 99.2738 325.935 100.2C326.128 100.541 326.292 100.88 326.427 101.216C326.243 100.325 326.062 99.4455 325.886 98.59C325.641 97.4247 325.433 96.2855 325.127 95.2072C324.567 93.0364 324.042 91.0036 323.557 89.1236C322.984 87.2681 322.458 85.5631 321.983 84.0233C321.745 83.2531 321.519 82.5237 321.307 81.8373C321.065 81.1617 320.837 80.528 320.626 79.9388C320.199 78.7594 319.837 77.756 319.544 76.9435C318.96 75.3135 318.648 74.4444 318.648 74.4444C318.648 74.4444 319.012 75.2928 319.694 76.8832C320.033 77.6799 320.452 78.6632 320.944 79.8187C321.188 80.3975 321.46 81.0166 321.729 81.6846C321.975 82.3618 322.236 83.0814 322.512 83.8412C323.062 85.3642 323.671 87.0501 324.335 88.8856C324.901 90.7553 325.514 92.7766 326.169 94.9354C326.48 95.8882 326.716 96.891 326.969 97.9161C327.084 97.4791 327.214 97.0356 327.378 96.5812C327.835 95.348 328.357 94.0886 329.119 92.8125C332.109 87.7312 336.767 84.5125 339.71 86.2359C341.179 87.092 341.936 89.0155 341.949 91.3683C341.93 93.7294 341.037 96.541 339.453 99.1064C337.888 101.673 335.728 103.553 333.712 104.546C331.792 105.488 329.952 105.654 328.613 104.918C328.664 105.185 328.715 105.448 328.766 105.718C329.017 107.026 329.273 108.364 329.535 109.731C329.6 110.073 329.665 110.417 329.731 110.762C329.78 111.11 329.829 111.46 329.879 111.812C329.977 112.515 330.076 113.226 330.176 113.943C330.184 114.004 330.193 114.066 330.202 114.127C330.793 112.73 331.654 111.267 332.743 109.834C336.238 105.131 341.211 102.46 343.969 104.502C344.658 105.01 345.141 105.761 345.424 106.679C345.566 107.138 345.658 107.638 345.699 108.169C345.738 108.702 345.691 109.27 345.614 109.857C345.283 112.209 344.171 114.89 342.299 117.261C338.626 121.751 333.755 123.504 331.093 121.982C331.119 122.286 331.145 122.586 331.171 122.892C331.237 123.665 331.303 124.444 331.371 125.228C331.433 126.013 331.438 126.807 331.474 127.604C331.512 128.657 331.549 129.722 331.587 130.793C332.292 129.583 333.21 128.351 334.365 127.163C336.471 125.018 338.698 123.436 340.832 122.669C342.948 121.903 344.89 121.97 346.159 123.137C346.781 123.72 347.229 124.519 347.359 125.465C347.508 126.407 347.433 127.495 347.152 128.644Z" fill="#071d3f4f" fill-opacity="0.07"/>
</svg>